<svg id="visual" viewBox="0 0 960 540" width="960" height="540" xmlns="http://www.w3.org/2000/svg" xmlns:xlink="http://www.w3.org/1999/xlink" version="1.1"><rect x="0" y="0" width="960" height="540" fill="#007da7"></rect><path d="M0 380L120 355L240 398L360 346L480 407L600 330L720 332L840 361L960 383L960 541L840 541L720 541L600 541L480 541L360 541L240 541L120 541L0 541Z" fill="#ff734d"></path><path d="M0 410L120 422L240 408L360 445L480 367L600 419L720 386L840 410L960 452L960 541L840 541L720 541L600 541L480 541L360 541L240 541L120 541L0 541Z" fill="#e55d3a"></path><path d="M0 464L120 451L240 433L360 421L480 425L600 441L720 432L840 424L960 398L960 541L840 541L720 541L600 541L480 541L360 541L240 541L120 541L0 541Z" fill="#cc4627"></path><path d="M0 477L120 489L240 491L360 460L480 437L600 480L720 479L840 490L960 441L960 541L840 541L720 541L600 541L480 541L360 541L240 541L120 541L0 541Z" fill="#b32f14"></path><path d="M0 502L120 516L240 502L360 482L480 501L600 483L720 497L840 515L960 482L960 541L840 541L720 541L600 541L480 541L360 541L240 541L120 541L0 541Z" fill="#9a1300"></path></svg>